<?xml version="1.0" standalone="no"?><!DOCTYPE svg PUBLIC "-//W3C//DTD SVG 1.1//EN" "http://www.w3.org/Graphics/SVG/1.1/DTD/svg11.dtd"><svg t="1732684587639" class="icon" viewBox="0 0 1024 1024" version="1.1" xmlns="http://www.w3.org/2000/svg" p-id="22060" xmlns:xlink="http://www.w3.org/1999/xlink" width="200" height="200"><path d="M334.332 147.458c-79.168 33.14-115.99 61.678-218.173 171.224-50.63 54.313-92.056 101.262-92.056 103.103 0 0.92 33.14 1.841 73.645 0s73.645 0 73.645 4.603c0 3.682-21.173 27.617-46.949 53.392l-46.028 46.028 79.168 2.762 79.168 2.762-42.345 47.869-41.426 47.87 63.52 4.602 63.518 4.603-21.173 52.472-22.094 53.392 57.075 50.631c35.902 32.22 92.056 68.121 149.131 95.738 142.687 70.883 128.878 77.327 140.846-68.121 15.65-189.636 42.346-223.696 160.177-213.57 32.22 3.682 71.804 8.285 89.295 11.967 23.014 4.603 41.425 0.92 69.042-12.888 21.173-10.126 45.107-21.173 54.313-23.934 40.504-12.888 68.121-145.449 40.504-197.92-7.364-15.65-37.743-34.062-99.42-59.837-106.785-45.108-115.99-52.472-127.958-99.42-14.729-52.473-53.393-74.566-119.673-67.202-37.743 4.603-64.44 0.92-104.944-12.888-72.724-25.775-143.607-24.855-210.808 2.762z" p-id="22061"></path></svg>