<?xml version="1.0" standalone="no"?><!DOCTYPE svg PUBLIC "-//W3C//DTD SVG 1.1//EN" "http://www.w3.org/Graphics/SVG/1.1/DTD/svg11.dtd"><svg t="1732684278560" class="icon" viewBox="0 0 1462 1024" version="1.1" xmlns="http://www.w3.org/2000/svg" p-id="16549" xmlns:xlink="http://www.w3.org/1999/xlink" width="285.546875" height="200"><path d="M0 992.841143V149.357714c2.340571 0 4.754286-0.877714 7.314286-1.024 5.632 0 11.264 0 16.896-0.585143l54.857143-2.998857 30.134857-1.536 52.443428-3.072 54.857143-3.145143 57.270857-2.998857 32.475429-1.901714 22.308571-1.170286 36.132572-2.048c3.949714 0 8.045714 0 12.068571-0.365714 8.045714-0.512 16.018286-1.316571 24.064-1.755429l48.201143-2.413714 54.857143-3.072 80.457143-4.242286 31.963428-1.609142 23.478857-1.316572 53.686858-3.072c11.044571-0.658286 21.942857-1.097143 33.133714-1.609143l23.478857-1.316571 56.685714-3.145143 30.72-1.536 21.942857-1.389714c10.093714-0.658286 20.114286-1.389714 30.208-1.974857l50.029715-2.413715 67.510857-3.876571 26.477714-1.389714 75.337143-4.315429 41.618286-2.267429 72.411428-3.657142 33.060572-1.609143 23.552-1.316572 61.44-3.437714 35.547428-2.267429a63.341714 63.341714 0 0 1 7.826286 0 4.973714 4.973714 0 0 1 3.218286 1.316572 20.918857 20.918857 0 0 1 6.656 13.824V930.962286c0 2.194286 0 2.340571-0.438857 3.803428a100.571429 100.571429 0 0 1-16.310858 1.462857h-13.312l-31.305142 1.828572c-11.044571 0.658286-21.942857 1.097143-33.133715 1.682286-7.899429 0-15.725714 0.804571-23.552 1.316571l-53.028571 3.072c-11.044571 0.585143-21.942857 0.950857-33.133714 1.609143l-24.137143 1.316571c-17.481143 1.024-34.889143 2.121143-52.443429 3.072-11.044571 0.658286-21.942857 1.097143-33.133714 1.682286l-24.722286 1.316571-56.027428 3.145143c-10.459429 0.512-20.918857 0.950857-31.305143 1.609143l-52.516572 3.072-65.097143 3.584-66.852571 3.657143-65.828571 3.657143-66.925715 3.657143-65.828571 3.584c-20.918857 1.170286-41.764571 2.486857-62.610286 3.730285l-68.096 3.657143-64.512 3.584-67.510857 3.657143-56.685714 2.852572-23.478857 1.316571-62.683429 3.218286-29.257143 1.536-56.612571 3.218285c-10.24 0.585143-20.553143 0.950857-30.793143 1.536l-27.721143 1.682286c-6.802286 0.438857-13.604571 0.877714-20.48 1.462857a6.729143 6.729143 0 0 1-6.217143-2.706285 31.085714 31.085714 0 0 1-5.778286-10.605715 5.924571 5.924571 0 0 0-2.852571-4.388571z m807.643429-578.998857c1.097143-1.536 2.486857-3.291429 3.657142-5.12l48.932572-73.142857 4.242286-6.070858c3.218286 0 6.436571-0.585143 9.581714-0.658285l54.930286-1.682286 39.789714-1.462857 84.48-3.072 52.516571-1.609143h6.656c7.314286 0 14.628571-0.512 21.942857-0.658286a31.305143 31.305143 0 0 1 4.242286 0.512v7.314286a6502.180571 6502.180571 0 0 1-151.552 75.849143l-24.502857-9.362286-24.210286-9.362286-24.795428-9.508571c-8.045714-3.072-16.091429-6.217143-24.210286-9.216s-16.310857-6.656-24.868571-9.362286a38.326857 38.326857 0 0 0-2.267429 3.145143l-34.450286 60.269714a3.657143 3.657143 0 0 0-0.585143 3.803429l4.973715 2.340571q27.282286 11.556571 54.345143 23.259429c1.316571 0.585143 3.145143 0.658286 3.730285 2.706286l-3.803428 2.121143q-51.2 25.746286-103.131429 51.565714a19.675429 19.675429 0 0 1-9.216 2.121143h-36.571428a8.923429 8.923429 0 0 0-6.217143 1.024c0 1.243429-0.512 2.852571-0.512 4.388571v54.784a10.386286 10.386286 0 0 0 1.243428 6.802286H790.528a30.939429 30.939429 0 0 0 14.628571-3.510857q87.771429-44.251429 176.420572-88.210286l6.363428-3.072 27.501715 10.093714 146.285714 54.052572a32.256 32.256 0 0 0 11.702857 2.194285h64.658286c1.755429 0 3.657143 0.438857 5.412571-1.243428a8.265143 8.265143 0 0 0 0.438857-1.974857v-61.001143A10.898286 10.898286 0 0 0 1243.428571 480.621714a12.580571 12.580571 0 0 0-6.582857-0.877714h-33.865143a42.934857 42.934857 0 0 1-13.677714-2.048l-66.852571-20.626286-42.642286-13.092571a8.118857 8.118857 0 0 1-4.388571-2.267429l6.144-3.364571 75.264-39.862857 73.142857-38.619429a7.314286 7.314286 0 0 0 4.608-7.314286v-23.625142-77.897143a14.994286 14.994286 0 0 0-0.731429-7.314286 29.988571 29.988571 0 0 0-10.166857 0l-29.988571 3.072c-9.947429 1.024-20.041143 1.828571-29.988572 2.925714a542.427429 542.427429 0 0 1-47.542857 3.364572c-12.873143 0-25.746286 0.950857-38.619429 1.462857l-43.885714 1.901714-44.690286 1.682286-31.963428 1.316571c-15.872 0.658286-31.744 1.170286-47.616 2.048a25.453714 25.453714 0 0 1-13.312-2.925714c-21.138286-10.752-42.422857-21.284571-63.634286-31.890286a12.214857 12.214857 0 0 0-5.924571-2.194285c-3.364571 3.876571-95.085714 144.530286-102.838857 157.915428a22.674286 22.674286 0 0 0-1.389715 2.998857c1.097143 0.512 1.901714 1.097143 2.779429 1.462857 10.605714 4.315429 77.677714 26.112 82.578286 26.989715zM664.941714 565.101714l-17.846857 1.097143-17.481143 1.316572-17.408 1.389714c-5.632 0.585143-11.264 0.950857-16.822857 1.389714l-17.481143 1.389714c-5.778286 0.512-11.629714 1.097143-17.408 1.316572s-11.556571 1.316571-17.481143 1.097143a26.770286 26.770286 0 0 1-0.585142-8.118857V291.035429v-6.656a28.745143 28.745143 0 0 0-0.438858-2.852572c-0.804571 0-1.316571-0.585143-1.901714-0.512l-89.453714 8.777143a20.772571 20.772571 0 0 0-3.364572 1.024 21.284571 21.284571 0 0 0-0.585142 7.899429v271.945142a24.210286 24.210286 0 0 1-0.512 3.364572 12.653714 12.653714 0 0 1-2.048 0.512l-33.133715 2.267428-27.136 1.609143-63.853714 4.315429-47.542857 2.925714-20.406857 1.389714-45.787429 3.072c-15.506286 0.950857-30.866286 1.755429-46.372571 2.779429a11.556571 11.556571 0 0 0-6.509715 1.536 28.672 28.672 0 0 0 0 2.998857v59.245714a20.187429 20.187429 0 0 0 0.512 3.437715 14.628571 14.628571 0 0 0 6.802286 0.512l13.897143-0.804572 37.961143-1.609143 27.136-1.243428 65.828571-3.291429 41.618286-2.121143h4.315429c-4.315429 5.997714-8.338286 11.264-12.288 16.530286l-11.995429 15.945143-11.922286 15.945143-12.288 16.457143-11.995428 15.872-11.995429 15.945143c-4.022857 5.339429-7.753143 10.825143-11.922286 15.652571l-50.322285 4.096-56.539429 4.754286a11.044571 11.044571 0 0 0-6.363428 1.609143V836.608a36.571429 36.571429 0 0 0 0.585142 3.803429h6.217143l19.309715-1.024c10.459429-0.438857 20.918857-0.877714 31.305142-1.462858l59.099429-3.072 36.205714-1.682285c10.24-0.512 20.48-1.462857 30.72-1.609143a13.019429 13.019429 0 0 0 11.264-6.290286q53.906286-72.118857 107.958857-144.091428l27.136-36.205715a8.338286 8.338286 0 0 1 7.314286-3.730285c13.604571-0.585143 27.282286-1.389714 40.886857-2.121143l69.997715-3.657143c19.236571-1.024 38.546286-1.901714 57.856-2.779429a11.995429 11.995429 0 0 0 6.656-1.462857 13.092571 13.092571 0 0 0 0.438857-2.194286v-61.074285a15.506286 15.506286 0 0 0-1.828572-2.852572z m370.176-17.846857a11.849143 11.849143 0 0 0-7.972571-1.389714H943.762286a42.642286 42.642286 0 0 0-4.169143 1.024v32.256c0 1.536 0.438857 3.145143-1.243429 4.681143-8.192 0.512-16.603429 1.024-25.014857 1.316571l-40.374857 1.682286-29.257143 1.316571-65.170286 3.072-39.204571 1.609143a38.765714 38.765714 0 0 0-4.754286 0.438857 19.821714 19.821714 0 0 0-3.218285 1.024 13.019429 13.019429 0 0 0-0.438858 2.633143v59.172572a20.845714 20.845714 0 0 0 0.731429 3.949714 33.938286 33.938286 0 0 0 10.459429 0c21.504-1.024 43.008-2.194286 64.512-3.072 13.238857-0.658286 26.550857-1.097143 39.862857-1.682286l28.379428-1.243428 60.196572-2.925715a27.062857 27.062857 0 0 1 4.315428 0.585143v136.996572a21.942857 21.942857 0 0 0 0.658286 3.291428c6.070857 0.438857 88.795429-7.899429 94.427429-9.362286a13.092571 13.092571 0 0 0 0.731428-6.509714v-42.203428-85.796572a14.628571 14.628571 0 0 1 0.658286-6.656 18.139429 18.139429 0 0 1 2.998857-0.512c17.700571-0.877714 35.328-1.682286 53.028571-2.413714l39.862858-1.682286 28.306285-1.316571 44.690286-2.121143 32.548571-1.462857a14.628571 14.628571 0 0 0 2.998858 0A22.381714 22.381714 0 0 0 1243.428571 630.930286a17.408 17.408 0 0 0 0.438858-2.121143v-60.416a18.505143 18.505143 0 0 0-0.877715-3.510857 40.301714 40.301714 0 0 0-4.461714 0l-29.257143 1.316571-64 3.072-40.374857 1.609143-35.620571 1.901714-27.721143 1.170286a7.68 7.68 0 0 1-6.144-0.950857c-0.292571-8.411429 0.073143-17.042286-0.292572-25.746286z m-351.085714 264.411429l-3.730286-7.314286-28.233143-53.321143-49.956571-94.427428a15.506286 15.506286 0 0 0-3.949714-5.997715c-3.803429-0.731429-98.742857 8.557714-102.4 8.850286-0.512 0-0.950857 0.585143-1.462857 0.804571-0.365714 2.340571 1.097143 3.876571 1.901714 5.705143l25.892571 51.858286 43.885715 87.771429 3.291428 5.924571c4.754286 0.585143 102.4 0.877714 110.372572 0.438857a35.035429 35.035429 0 0 0 4.754285 0z m407.259429-150.747429l2.998857 5.997714 55.515428 103.058286c1.974857 3.730286 4.096 7.314286 5.997715 11.190857a4.461714 4.461714 0 0 0 4.900571 2.633143l28.16-2.56c11.044571-1.024 21.942857-2.194286 33.060571-3.072l32.402286-2.852571a21.065143 21.065143 0 0 0 7.314286-1.389715 5.997714 5.997714 0 0 0 0-1.828571l-74.459429-121.270857a48.274286 48.274286 0 0 0-5.12 0l-88.722285 9.069714s-0.804571 0.219429-1.755429 0.950857z m-198.802286 9.069714a23.332571 23.332571 0 0 0-4.169143 0c-7.314286 0.585143-13.970286 1.170286-20.992 1.901715l-30.573714 3.072-29.257143 2.925714c-3.364571 0-6.729143 0.877714-10.166857 1.316571l-3.072 5.412572-56.685715 105.106286c-1.828571 3.437714-3.657143 6.729143-5.339428 10.166857a10.971429 10.971429 0 0 0-0.438857 3.145143H819.565714c8.265143 0 7.314286 0.365714 10.459429-6.363429q30.134857-60.123429 60.123428-120.32a34.304 34.304 0 0 1 2.706286-6.436571z m-701.293714-351.085714a14.043429 14.043429 0 0 0 3.876571 6.290286c14.628571 18.432 30.061714 36.571429 45.129143 55.076571 10.898286 13.385143 21.942857 26.697143 32.841143 40.228572a7.314286 7.314286 0 0 0 7.314285 3.145143c5.339429-0.658286 10.825143-1.024 16.237715-1.536l35.986285-3.072c11.849143-0.950857 23.698286-1.828571 35.474286-2.852572l18.651429-1.755428c0.877714 0 1.755429-0.512 3.218285-0.877715-1.389714-1.828571-2.413714-3.291429-3.584-4.608-5.339429-5.997714-10.678857-11.995429-16.164571-17.846857l-61.732571-68.681143a10.093714 10.093714 0 0 0-8.265143-4.022857H195.876571c-1.170286 0-2.486857 0.292571-4.388571 0.438857z m0 132.681143a16.822857 16.822857 0 0 0 4.315428 5.997714q20.699429 23.113143 41.545143 46.153143l34.742857 38.619429c4.827429 5.339429 3.657143 4.608 10.825143 4.681143h101.888c1.462857 0 3.072 0 4.827429-0.438858a13.897143 13.897143 0 0 0-4.315429-6.875428l-76.068571-92.964572-2.633143-3.218285a4.461714 4.461714 0 0 0-4.315429-1.682286l-30.061714 2.56c-12.068571 0.877714-24.064 1.974857-36.059429 2.998857l-35.401143 2.925714c-2.706286 0.292571-5.632 0.731429-9.142857 1.243429z" fill="#333333" p-id="16550"></path></svg>