<?xml version="1.0" standalone="no"?><!DOCTYPE svg PUBLIC "-//W3C//DTD SVG 1.1//EN" "http://www.w3.org/Graphics/SVG/1.1/DTD/svg11.dtd"><svg t="1732454308667" class="icon" viewBox="0 0 1024 1024" version="1.1" xmlns="http://www.w3.org/2000/svg" p-id="4241" xmlns:xlink="http://www.w3.org/1999/xlink" width="200" height="200"><path d="M673.17175 366.053c10.374278 0 20.641109 0.740874 30.820959 1.882883C676.295903 238.96758 538.41665 143.149281 381.028063 143.149281c-175.959547 0-320.089156 119.916137-320.089156 272.205589 0 87.939865 47.949059 160.089092 128.08519 216.096686l-32.017204 96.28288 111.899556-56.105832c40.038902 7.915273 72.166623 16.07614 112.121614 16.07614 10.044774 0 19.999496-0.505513 29.882588-1.276063-6.249331-21.388123-9.878998-43.798529-9.878998-67.069535C401.031653 479.523331 521.117658 366.053 673.17175 366.053L673.17175 366.053zM498.809583 272.770454c27.329439 0 49.485041 22.154579 49.485041 49.485041 0 27.332509-22.155603 49.484018-49.485041 49.484018-27.334555 0-49.489134-22.154579-49.489134-49.484018C449.321472 294.925033 471.476051 272.770454 498.809583 272.770454L498.809583 272.770454zM274.852882 372.740306c-27.329439 0-49.485041-22.154579-49.485041-49.484018 0-27.333532 22.155603-49.490158 49.485041-49.490158 27.334555 0 49.489134 22.155603 49.489134 49.490158C324.342016 350.584704 302.187437 372.740306 274.852882 372.740306L274.852882 372.740306zM963.060069 616.554264c0-127.969557-128.054491-232.283344-271.88427-232.283344-152.299685 0-272.246521 104.313787-272.246521 232.283344 0 128.188544 119.947859 232.274134 272.246521 232.274134 31.872918 0 64.029292-8.04421 96.04138-16.070001l87.800695 48.092321-24.075325-79.992869C915.194922 752.658082 963.060069 688.74033 963.060069 616.554264L963.060069 616.554264zM607.538937 580.680219c-19.463284 0-35.239596-15.780405-35.239596-35.243689 0-19.460214 15.776312-35.235502 35.239596-35.235502 19.459191 0 35.235502 15.775288 35.235502 35.235502C642.779555 564.899814 626.998127 580.680219 607.538937 580.680219L607.538937 580.680219zM783.503601 582.676689c-19.4684 0-35.240619-15.776312-35.240619-35.236526 0-19.463284 15.775288-35.238572 35.240619-35.238572 19.459191 0 35.240619 15.775288 35.240619 35.238572C818.743196 566.900378 802.961768 582.676689 783.503601 582.676689L783.503601 582.676689zM783.503601 582.676689" fill="#626363" p-id="4242"></path></svg>